<svg width="542" height="188" viewBox="0 0 542 188" fill="none" xmlns="http://www.w3.org/2000/svg">
<path d="M513.531 155.011C513.513 154.647 513.419 154.292 513.252 153.968C513.086 153.644 512.853 153.36 512.567 153.134C512.282 152.907 511.952 152.745 511.598 152.657C511.245 152.569 510.877 152.558 510.519 152.624H507.806V160.76H509.244V157.37H510.302L512.201 160.76H513.965L511.767 157.207C512.277 157.116 512.737 156.843 513.061 156.44C513.385 156.036 513.552 155.528 513.531 155.011ZM509.135 156.177V153.926H510.465C510.644 153.883 510.83 153.878 511.011 153.911C511.192 153.945 511.364 154.017 511.515 154.122C511.667 154.227 511.794 154.363 511.889 154.521C511.984 154.679 512.044 154.855 512.066 155.038C512.037 155.236 511.968 155.427 511.861 155.597C511.755 155.767 511.614 155.913 511.448 156.025C511.282 156.137 511.094 156.214 510.897 156.249C510.699 156.285 510.497 156.279 510.302 156.231H509.135V156.177ZM510.492 149.533C509.079 149.56 507.706 150.004 506.545 150.809C505.384 151.614 504.487 152.744 503.967 154.058C503.447 155.371 503.328 156.809 503.624 158.19C503.92 159.571 504.618 160.834 505.63 161.82C506.642 162.805 507.924 163.469 509.313 163.728C510.702 163.988 512.137 163.83 513.437 163.277C514.737 162.723 515.844 161.797 516.618 160.616C517.393 159.434 517.801 158.05 517.79 156.638C517.78 155.692 517.582 154.757 517.209 153.888C516.836 153.018 516.295 152.231 515.617 151.57C514.939 150.91 514.137 150.391 513.258 150.041C512.378 149.691 511.438 149.519 510.492 149.533V149.533ZM510.492 162.794C509.29 162.794 508.115 162.438 507.115 161.77C506.116 161.103 505.337 160.154 504.877 159.044C504.417 157.934 504.297 156.713 504.531 155.534C504.766 154.356 505.345 153.274 506.195 152.424C507.044 151.575 508.127 150.996 509.306 150.762C510.485 150.527 511.707 150.648 512.818 151.107C513.928 151.567 514.877 152.346 515.545 153.345C516.213 154.343 516.569 155.518 516.569 156.719C516.562 158.328 515.92 159.869 514.781 161.007C513.643 162.144 512.102 162.787 510.492 162.794V162.794Z" fill="#0077C5"/>
<path d="M24 65.1686H48.4182V162.794H24V65.1686ZM127.343 62.3213C121.08 62.2282 114.919 63.9045 109.567 67.1571C104.215 70.4098 99.8908 75.1067 97.0918 80.7073H96.6848V65.0602H73.4875V162.685H97.9057V108.991C97.9057 95.9748 105.231 82.5513 120.696 82.5513C136.161 82.5513 139.01 97.0053 139.01 108.585V162.821H163.428V101.805C163.428 81.8463 152.847 62.3213 127.425 62.3213H127.343ZM337.502 118.863C337.502 131.879 330.177 145.303 314.712 145.303C299.247 145.303 296.398 130.876 296.398 119.269V65.0331H271.98V126.049C271.98 145.981 282.562 165.506 308.011 165.506C314.298 165.6 320.482 163.91 325.847 160.631C331.211 157.353 335.535 152.62 338.316 146.984H338.723V162.658H361.921V65.0331H337.502V118.727V118.863ZM386.909 162.794H411.327V65.1686H386.909V162.794ZM175.8 86.8631H203.175V162.794H227.593V86.8631H254.969V65.1686H175.935V86.8631H175.8ZM215.384 52.5045C218.304 52.5045 221.157 51.6393 223.584 50.0183C226.011 48.3973 227.903 46.0933 229.02 43.3977C230.137 40.7021 230.43 37.7359 229.86 34.8742C229.291 32.0125 227.885 29.3839 225.821 27.3208C223.757 25.2577 221.127 23.8527 218.264 23.2835C215.401 22.7142 212.433 23.0064 209.736 24.123C207.039 25.2395 204.734 27.1304 203.112 29.5563C201.491 31.9823 200.625 34.8346 200.625 37.7523C200.654 41.6601 202.232 45.3969 205.015 48.1424C207.797 50.8878 211.556 52.4177 215.466 52.396L215.384 52.5045ZM428.447 65.2229V86.9174H455.822V162.848H480.24V86.9174H507.616V65.2229H428.528H428.447ZM468.031 52.5045C470.95 52.5045 473.804 51.6393 476.231 50.0183C478.658 48.3973 480.55 46.0933 481.667 43.3977C482.784 40.7021 483.077 37.7359 482.507 34.8742C481.938 32.0125 480.532 29.3839 478.468 27.3208C476.404 25.2577 473.774 23.8527 470.911 23.2835C468.048 22.7142 465.08 23.0064 462.383 24.123C459.686 25.2395 457.381 27.1304 455.759 29.5563C454.137 31.9823 453.272 34.8346 453.272 37.7523C453.301 41.6601 454.879 45.3969 457.662 48.1424C460.444 50.8878 464.203 52.4177 468.113 52.396L468.031 52.5045Z" fill="#0077C5"/>
</svg>
