<svg id="logo" xmlns="http://www.w3.org/2000/svg" viewBox="0 0 428 95"><defs><style>.cls-1{fill:#da3743;}.cls-2{fill:#333;}</style></defs><title>Logo_horizontal_RGB</title><path class="cls-1" d="M85.36,2.5A47.5,47.5,0,1,0,132.82,50,47.48,47.48,0,0,0,85.36,2.5Zm0,59.37A11.87,11.87,0,1,1,97.22,50,11.87,11.87,0,0,1,85.35,61.87ZM2,50A11.87,11.87,0,1,1,13.87,61.87,11.87,11.87,0,0,1,2,50" transform="translate(-2 -2.5)"/><path class="cls-2" d="M245.82,40.91a12.14,12.14,0,0,1,12.42,12.54c0,0.41-.06,1.35-0.12,1.76a1.38,1.38,0,0,1-1.29,1.23H239.49a6.5,6.5,0,0,0,6.74,6.27,9,9,0,0,0,5.8-2,1.13,1.13,0,0,1,1.76,0l2.28,3a1.14,1.14,0,0,1-.12,1.76,15.27,15.27,0,0,1-10.08,3.69c-8.08,0-13.71-6.45-13.71-14.19S237.8,40.91,245.82,40.91Zm5,10.73a5,5,0,0,0-5.21-4.69c-3.28,0-5.39,2-5.74,4.69h11Zm65.6-21.16H288.9a1.11,1.11,0,0,0-1.11,1.11V36.4a1.11,1.11,0,0,0,1.11,1.11h9.94v30A1.15,1.15,0,0,0,300,68.58h5.45a1.15,1.15,0,0,0,1.11-1.11v-30h9.94a1.11,1.11,0,0,0,1.11-1.11V31.59A1.11,1.11,0,0,0,316.46,30.48Zm41.45,10.44a19.15,19.15,0,0,0-6.62,1.17V31.76A1.34,1.34,0,0,0,350,30.48h-4.75A1.39,1.39,0,0,0,344,31.76V67.29a1.34,1.34,0,0,0,1.29,1.29H348a1.3,1.3,0,0,0,1.3-1.29v-2l0-.1a11.83,11.83,0,0,0,9,4C365.7,69.23,371,62.78,371,55,371,47.12,365.93,40.91,357.91,40.91Zm-0.64,21.63a6.21,6.21,0,0,1-6-3.75V49.12a10.7,10.7,0,0,1,5.62-1.52c4.45,0,6.74,3.63,6.74,7.45S361.48,62.54,357.26,62.54Zm45.85-21.63a12.14,12.14,0,0,1,12.42,12.54c0,0.41-.06,1.35-0.12,1.76a1.38,1.38,0,0,1-1.29,1.23H396.78a6.5,6.5,0,0,0,6.74,6.27,9,9,0,0,0,5.8-2,1.13,1.13,0,0,1,1.76,0l2.28,3a1.14,1.14,0,0,1-.12,1.76,15.27,15.27,0,0,1-10.08,3.69c-8.08,0-13.71-6.45-13.71-14.19S395.08,40.91,403.11,40.91Zm5,10.73a5,5,0,0,0-5.21-4.69c-3.28,0-5.39,2-5.74,4.69h11ZM214.95,40.91a11.69,11.69,0,0,0-8.84,4V42.79a1.3,1.3,0,0,0-1.29-1.29h-2.88a1.3,1.3,0,0,0-1.29,1.29V78.31a1.34,1.34,0,0,0,1.29,1.29h4.75A1.39,1.39,0,0,0,208,78.31V68.11a20.1,20.1,0,0,0,6.5,1.11c8.08,0,13.42-6.21,13.42-14.13C227.9,46.89,222.33,40.91,214.95,40.91ZM213.6,62.54A10.7,10.7,0,0,1,208,61V51.35a6.21,6.21,0,0,1,6-3.75c4.22,0,6.39,3.69,6.39,7.5S218.05,62.54,213.6,62.54Zm64.5-21.63a10.92,10.92,0,0,0-8.71,3.91v-2a1.3,1.3,0,0,0-1.29-1.29H265a1.3,1.3,0,0,0-1.29,1.29v24.5A1.34,1.34,0,0,0,265,68.58h4.34c1.29,0,1.7-.29,1.7-1.29V51.81a6,6,0,0,1,5.86-4.22c3.28,0,4.69,2.17,4.69,5.69v14a1.3,1.3,0,0,0,1.29,1.29h4.75a1.34,1.34,0,0,0,1.29-1.29v-14C288.94,46.71,286.71,40.91,278.1,40.91Zm49.18,0A34.18,34.18,0,0,0,318,42.26a1.24,1.24,0,0,0-.88,1.64l0.59,3a1.17,1.17,0,0,0,1.52,1.17,33.86,33.86,0,0,1,7.62-1c2.87,0,3.87,1.64,3.75,5.1a19.85,19.85,0,0,0-5.21-.76c-6.85,0-10.78,3.69-10.78,8.5,0,5.8,3.75,9.26,9.14,9.26a11.85,11.85,0,0,0,8.49-3.4v1.46a1.3,1.3,0,0,0,1.29,1.29h2.64a1.3,1.3,0,0,0,1.29-1.29V52.69C337.48,45.31,335.72,40.91,327.29,40.91Zm3.16,20a5.81,5.81,0,0,1-4.86,2.87A3.57,3.57,0,0,1,321.66,60c0-2.4,1.7-3.87,4.8-3.87a10.79,10.79,0,0,1,4,.82v4ZM175.86,30.5A19.45,19.45,0,0,0,156.49,50a19.4,19.4,0,0,0,38.8,0A19.49,19.49,0,0,0,175.86,30.5Zm0,7.53a12.09,12.09,0,0,1,11.9,12A11.87,11.87,0,1,1,175.86,38ZM384.7,68.63a1.31,1.31,0,0,0,1.3-1.29V62.57a1.3,1.3,0,0,0-1.29-1.29H384.5a1.25,1.25,0,0,1-1.16-1.16V31.86A1.39,1.39,0,0,0,382,30.57H377.3A1.39,1.39,0,0,0,376,31.86v31.3L376,64a5,5,0,0,0,4.65,4.66h4Zm34.83-22.22a5.24,5.24,0,1,1,10.47,0A5.24,5.24,0,1,1,419.53,46.41Zm9.36,0a4.14,4.14,0,1,0-8.24,0A4.13,4.13,0,1,0,428.89,46.41Zm-6.13-2.89h2.11c1.17,0,2.17.47,2.17,1.81a1.64,1.64,0,0,1-1,1.53l1.28,2.31H426l-1-1.94h-1.14v1.94h-1.14V43.52Zm1.86,2.81a1,1,0,0,0,1.19-.95,0.91,0.91,0,0,0-1.14-.92h-0.78v1.86h0.72Z" transform="translate(-2 -2.5)"/></svg>