<?xml version="1.0" encoding="utf-8"?>
<!-- Generator: Adobe Illustrator 21.0.2, SVG Export Plug-In . SVG Version: 6.00 Build 0)  -->
<svg version="1.1" id="logo" xmlns="http://www.w3.org/2000/svg" xmlns:xlink="http://www.w3.org/1999/xlink" x="0px" y="0px"
	 viewBox="0 0 432 100" style="enable-background:new 0 0 432 100;" xml:space="preserve">
<style type="text/css">
	.st0{fill:#FFFFFF;}
</style>
<g>
	<path class="st0" d="M85.4,2.5C59.1,2.5,37.9,23.8,37.9,50c0,26.2,21.3,47.5,47.5,47.5c26.2,0,47.5-21.3,47.5-47.5
		C132.8,23.8,111.6,2.5,85.4,2.5z M85.4,61.9c-6.6,0-11.9-5.3-11.9-11.9c0-6.6,5.3-11.9,11.9-11.9c6.6,0,11.9,5.3,11.9,11.9
		C97.2,56.6,91.9,61.9,85.4,61.9z M2,50c0-6.6,5.3-11.9,11.9-11.9c6.6,0,11.9,5.3,11.9,11.9c0,6.6-5.3,11.9-11.9,11.9
		C7.3,61.9,2,56.6,2,50"/>
	<path class="st0" d="M245.8,40.9c7,0,12.4,5.2,12.4,12.5c0,0.4-0.1,1.3-0.1,1.8c-0.1,0.7-0.7,1.2-1.3,1.2h-17.3
		c0.1,3.3,2.8,6.3,6.7,6.3c2.7,0,4.6-1,5.8-2c0.6-0.5,1.3-0.6,1.8,0l2.3,3c0.5,0.5,0.5,1.2-0.1,1.8c-2.3,2-5.7,3.7-10.1,3.7
		c-8.1,0-13.7-6.4-13.7-14.2C232.2,47.4,237.8,40.9,245.8,40.9z M250.9,51.6c-0.1-2.6-2.2-4.7-5.2-4.7c-3.3,0-5.4,2-5.7,4.7H250.9z
		 M316.5,30.5h-27.6c-0.6,0-1.1,0.5-1.1,1.1v4.8c0,0.6,0.5,1.1,1.1,1.1h9.9v30c0,0.6,0.5,1.1,1.1,1.1h5.4c0.6,0,1.1-0.5,1.1-1.1v-30
		h9.9c0.6,0,1.1-0.5,1.1-1.1v-4.8C317.6,31,317.1,30.5,316.5,30.5z M357.9,40.9c-2.7,0-5.4,0.6-6.6,1.2V31.8c0-0.6-0.6-1.3-1.3-1.3
		h-4.7c-0.6,0-1.3,0.6-1.3,1.3v35.5c0,0.7,0.6,1.3,1.3,1.3h2.1c0,0,0.1,0,0.1,0h0.5c0.7,0,1.3-0.6,1.3-1.3v-2l0-0.1c0,0,3.1,4,9,4
		c7.4,0,12.7-6.4,12.7-14.2C371,47.1,365.9,40.9,357.9,40.9z M357.3,62.5c-3.5,0-5.4-2.2-6-3.8v-9.7c0,0,2.2-1.5,5.6-1.5
		c4.5,0,6.7,3.6,6.7,7.4S361.5,62.5,357.3,62.5z M403.1,40.9c7,0,12.4,5.2,12.4,12.5c0,0.4-0.1,1.3-0.1,1.8
		c-0.1,0.7-0.7,1.2-1.3,1.2h-17.3c0.1,3.3,2.8,6.3,6.7,6.3c2.7,0,4.6-1,5.8-2c0.6-0.5,1.3-0.6,1.8,0l2.3,3c0.5,0.5,0.5,1.2-0.1,1.8
		c-2.3,2-5.7,3.7-10.1,3.7c-8.1,0-13.7-6.4-13.7-14.2C389.5,47.4,395.1,40.9,403.1,40.9z M408.1,51.6c-0.1-2.6-2.2-4.7-5.2-4.7
		c-3.3,0-5.4,2-5.7,4.7H408.1z M214.9,40.9c-5.6,0-8.7,3.8-8.8,4v-2.2c0-0.7-0.6-1.3-1.3-1.3h-2.9c-0.7,0-1.3,0.6-1.3,1.3v35.5
		c0,0.6,0.6,1.3,1.3,1.3h4.7c0.6,0,1.3-0.6,1.3-1.3V68.1c1.2,0.5,3.8,1.1,6.5,1.1c8.1,0,13.4-6.2,13.4-14.1
		C227.9,46.9,222.3,40.9,214.9,40.9z M213.6,62.5c-3.4,0-5.6-1.5-5.6-1.5v-9.7c0.6-1.5,2.5-3.8,6-3.8c4.2,0,6.4,3.7,6.4,7.5
		S218.1,62.5,213.6,62.5z M278.1,40.9c-5.2,0-7.7,2.8-8.7,3.9v-2c0-0.7-0.6-1.3-1.3-1.3H265c-0.6,0-1.3,0.5-1.3,1.3v24.5
		c0,0.7,0.6,1.3,1.3,1.3h4.3c1.3,0,1.7-0.3,1.7-1.3V51.8c0.6-1.9,2.3-4.2,5.9-4.2c3.3,0,4.7,2.2,4.7,5.7v14c0,0.7,0.6,1.3,1.3,1.3
		h4.7c0.6,0,1.3-0.6,1.3-1.3v-14C288.9,46.7,286.7,40.9,278.1,40.9z M327.3,40.9c-4.4,0-8.7,1.1-9.3,1.3c-0.6,0.2-1.1,0.6-0.9,1.6
		l0.6,3c0.1,0.8,0.6,1.5,1.5,1.2c1.6-0.5,5.2-1,7.6-1c2.9,0,3.9,1.6,3.7,5.1c0,0-2.5-0.8-5.2-0.8c-6.9,0-10.8,3.7-10.8,8.5
		c0,5.8,3.7,9.3,9.1,9.3c4.2,0,6.9-1.9,8.5-3.4v1.5c0,0.7,0.6,1.3,1.3,1.3h0.5c0,0,0.1,0,0.2,0h2c0.7,0,1.3-0.6,1.3-1.3V52.7
		C337.5,45.3,335.7,40.9,327.3,40.9z M330.4,60.9c-0.4,1-2.5,2.9-4.9,2.9c-2.5,0-3.9-1.5-3.9-3.8c0-2.4,1.7-3.9,4.8-3.9
		c2.2,0,4,0.8,4,0.8V60.9z M175.9,30.5c-10.7,0-19.4,8.7-19.4,19.5c0,10.9,8.5,19.4,19.4,19.4c10.9,0,19.4-8.5,19.4-19.4
		C195.3,39.2,186.6,30.5,175.9,30.5z M175.9,38c6.5,0,11.9,5.5,11.9,12c0,6.5-5.3,11.9-11.9,11.9c-6.5,0-11.8-5.3-11.8-11.9
		C164,43.4,169.3,38,175.9,38z M384.7,68.6c0.7,0,1.3-0.6,1.3-1.3l0-4.8c0-0.7-0.6-1.3-1.3-1.3l-0.2,0c-0.6,0-1.2-0.6-1.2-1.2l0-0.2
		v-28c0-0.6-0.6-1.3-1.3-1.3h-4.7c-0.6,0-1.3,0.6-1.3,1.3v31.3l0,0.8c0,2.3,2.3,4.7,4.7,4.7L384.7,68.6z M419.5,46.4
		c0-3.3,2.4-5.5,5.2-5.5c2.9,0,5.2,2.2,5.2,5.5c0,3.3-2.4,5.5-5.2,5.5C421.9,51.9,419.5,49.7,419.5,46.4z M428.9,46.4
		c0-2.6-1.8-4.5-4.1-4.5c-2.3,0-4.1,1.9-4.1,4.5c0,2.6,1.8,4.4,4.1,4.4C427.1,50.9,428.9,49,428.9,46.4z M422.8,43.5h2.1
		c1.2,0,2.2,0.5,2.2,1.8c0,0.7-0.4,1.3-1,1.5l1.3,2.3H426l-1-1.9h-1.1v1.9h-1.1V43.5z M424.6,46.3c0.7,0,1.2-0.3,1.2-0.9
		c0-0.6-0.3-0.9-1.1-0.9h-0.8v1.9H424.6z"/>
</g>
</svg>
