<svg width="66" height="66" viewBox="0 0 66 66" fill="none" xmlns="http://www.w3.org/2000/svg">
<circle cx="33" cy="33" r="33" fill="#303030"/>
<path d="M12.4003 46.1053V20.8908H25.3677V25.4655H17.4792V31.0847H24.251V35.5872H17.4792V41.5667H25.6919V46.1053H12.4003ZM50.9583 42.8634C48.5089 45.3368 45.3631 46.5735 41.5209 46.5735C37.6787 46.5735 34.5329 45.3368 32.0835 42.8634C29.6341 40.366 28.4094 37.2442 28.4094 33.498C28.4094 29.7759 29.6341 26.6661 32.0835 24.1687C34.557 21.6713 37.7028 20.4226 41.5209 20.4226C45.3391 20.4226 48.4729 21.6713 50.9223 24.1687C53.3957 26.6661 54.6324 29.7759 54.6324 33.498C54.6324 37.2442 53.4077 40.366 50.9583 42.8634ZM47.1041 27.5546C45.6393 25.9697 43.7782 25.1773 41.5209 25.1773C39.2637 25.1773 37.3906 25.9697 35.9017 27.5546C34.4369 29.1396 33.7045 31.1207 33.7045 33.498C33.7045 35.9234 34.4369 37.9166 35.9017 39.4775C37.3906 41.0384 39.2637 41.8188 41.5209 41.8188C43.7782 41.8188 45.6393 41.0384 47.1041 39.4775C48.593 37.9166 49.3374 35.9234 49.3374 33.498C49.3374 31.1207 48.593 29.1396 47.1041 27.5546Z" fill="#FFFEFB"/>
</svg>
