<svg width="36" height="36" viewBox="0 0 36 36" fill="none" xmlns="http://www.w3.org/2000/svg">
<path d="M35.318 13.4156C35.5922 13.1977 36 13.4016 36 13.7461V28.125C36 29.9883 34.4883 31.5 32.625 31.5H3.375C1.51172 31.5 0 29.9883 0 28.125V13.7531C0 13.4016 0.400781 13.2047 0.682031 13.4227C2.25703 14.6461 4.34531 16.2 11.5172 21.4102C13.0008 22.493 15.5039 24.7711 18 24.757C20.5102 24.7781 23.0625 22.4508 24.4898 21.4102C31.6617 16.2 33.743 14.6391 35.318 13.4156ZM18 22.5C19.6313 22.5281 21.9797 20.4469 23.1609 19.5891C32.4914 12.818 33.2016 12.2273 35.3531 10.5398C35.7609 10.2234 36 9.73125 36 9.21094V7.875C36 6.01172 34.4883 4.5 32.625 4.5H3.375C1.51172 4.5 0 6.01172 0 7.875V9.21094C0 9.73125 0.239062 10.2164 0.646875 10.5398C2.79844 12.2203 3.50859 12.818 12.8391 19.5891C14.0203 20.4469 16.3687 22.5281 18 22.5Z" fill="#303030"/>
</svg>
