<svg width="36" height="38" viewBox="0 0 36 38" fill="none" xmlns="http://www.w3.org/2000/svg">
<path d="M12.0411 28.8435C12.0411 28.9886 11.8742 29.1048 11.6637 29.1048C11.4242 29.1265 11.2573 29.0104 11.2573 28.8435C11.2573 28.6983 11.4242 28.5822 11.6347 28.5822C11.8524 28.5604 12.0411 28.6765 12.0411 28.8435ZM9.78387 28.5169C9.73306 28.662 9.87823 28.829 10.096 28.8725C10.2847 28.9451 10.5024 28.8725 10.546 28.7273C10.5895 28.5822 10.4516 28.4152 10.2339 28.3499C10.0452 28.2991 9.83468 28.3717 9.78387 28.5169ZM12.9919 28.3935C12.7815 28.4443 12.6363 28.5822 12.6581 28.7491C12.6798 28.8943 12.8685 28.9886 13.0863 28.9378C13.2968 28.887 13.4419 28.7491 13.4202 28.604C13.3984 28.466 13.2024 28.3717 12.9919 28.3935ZM17.7677 0.580566C7.70081 0.580566 0 8.22331 0 18.2902C0 26.3394 5.06613 33.2273 12.3024 35.6515C13.2315 35.8185 13.5581 35.2451 13.5581 34.7733C13.5581 34.3233 13.5363 31.8411 13.5363 30.3169C13.5363 30.3169 8.45565 31.4056 7.38871 28.154C7.38871 28.154 6.56129 26.0419 5.37097 25.4975C5.37097 25.4975 3.70887 24.358 5.4871 24.3798C5.4871 24.3798 7.29435 24.5249 8.28871 26.2523C9.87823 29.054 12.5419 28.2483 13.5798 27.7693C13.7468 26.608 14.2185 25.8023 14.7411 25.3233C10.6839 24.8733 6.59032 24.2854 6.59032 17.3031C6.59032 15.3072 7.14194 14.3056 8.30323 13.0281C8.11452 12.5564 7.49758 10.6112 8.49193 8.09992C10.0089 7.62815 13.5 10.0596 13.5 10.0596C14.9516 9.65315 16.5121 9.44266 18.0581 9.44266C19.604 9.44266 21.1645 9.65315 22.6161 10.0596C22.6161 10.0596 26.1073 7.62089 27.6242 8.09992C28.6185 10.6185 28.0016 12.5564 27.8129 13.0281C28.9742 14.3128 29.6855 15.3144 29.6855 17.3031C29.6855 24.3072 25.4105 24.866 21.3532 25.3233C22.021 25.8967 22.5871 26.9854 22.5871 28.691C22.5871 31.137 22.5653 34.1636 22.5653 34.7588C22.5653 35.2306 22.8992 35.804 23.821 35.637C31.079 33.2273 36 26.3394 36 18.2902C36 8.22331 27.8347 0.580566 17.7677 0.580566ZM7.05484 25.6136C6.96048 25.6862 6.98226 25.8531 7.10565 25.9911C7.22177 26.1072 7.38871 26.158 7.48306 26.0636C7.57742 25.9911 7.55564 25.8241 7.43226 25.6862C7.31613 25.5701 7.14919 25.5193 7.05484 25.6136ZM6.27097 25.0257C6.22016 25.1201 6.29274 25.2362 6.4379 25.3088C6.55403 25.3814 6.69919 25.3596 6.75 25.258C6.80081 25.1636 6.72823 25.0475 6.58306 24.9749C6.4379 24.9314 6.32177 24.9531 6.27097 25.0257ZM8.62258 27.6096C8.50645 27.704 8.55 27.9217 8.71694 28.0596C8.88387 28.2265 9.09435 28.2483 9.18871 28.1322C9.28306 28.0378 9.23952 27.8201 9.09435 27.6822C8.93468 27.5152 8.71694 27.4935 8.62258 27.6096ZM7.79516 26.5427C7.67903 26.6152 7.67903 26.804 7.79516 26.9709C7.91129 27.1378 8.10726 27.2104 8.20161 27.1378C8.31774 27.0435 8.31774 26.8548 8.20161 26.6878C8.1 26.5209 7.91129 26.4483 7.79516 26.5427Z" fill="#303030"/>
</svg>
