<svg width="36" height="42" viewBox="0 0 36 42" fill="none" xmlns="http://www.w3.org/2000/svg">
<g clip-path="url(#clip0)">
<path d="M18.008 11.3304C12.8973 11.3304 8.77499 15.4527 8.77499 20.5634C8.77499 25.6741 12.8973 29.7964 18.008 29.7964C23.1187 29.7964 27.2411 25.6741 27.2411 20.5634C27.2411 15.4527 23.1187 11.3304 18.008 11.3304ZM18.008 26.5661C14.7053 26.5661 12.0054 23.8741 12.0054 20.5634C12.0054 17.2527 14.6973 14.5607 18.008 14.5607C21.3187 14.5607 24.0107 17.2527 24.0107 20.5634C24.0107 23.8741 21.3107 26.5661 18.008 26.5661ZM29.7723 10.9527C29.7723 12.15 28.808 13.1063 27.6187 13.1063C26.4214 13.1063 25.4652 12.142 25.4652 10.9527C25.4652 9.7634 26.4295 8.79911 27.6187 8.79911C28.808 8.79911 29.7723 9.7634 29.7723 10.9527ZM35.8875 13.1384C35.7509 10.2536 35.0919 7.69822 32.9786 5.59286C30.8732 3.48751 28.3178 2.82858 25.433 2.68394C22.4598 2.51519 13.5482 2.51519 10.575 2.68394C7.69821 2.82054 5.14285 3.47947 3.02946 5.58483C0.916071 7.69019 0.265178 10.2455 0.120535 13.1304C-0.0482147 16.1036 -0.0482147 25.0152 0.120535 27.9884C0.257142 30.8732 0.916071 33.4286 3.02946 35.5339C5.14285 37.6393 7.69017 38.2982 10.575 38.4429C13.5482 38.6116 22.4598 38.6116 25.433 38.4429C28.3178 38.3063 30.8732 37.6473 32.9786 35.5339C35.0839 33.4286 35.7428 30.8732 35.8875 27.9884C36.0562 25.0152 36.0562 16.1116 35.8875 13.1384ZM32.0464 31.1786C31.4196 32.7536 30.2062 33.967 28.6232 34.6018C26.2527 35.542 20.6277 35.325 18.008 35.325C15.3884 35.325 9.75535 35.5339 7.39285 34.6018C5.81785 33.975 4.60446 32.7616 3.96964 31.1786C3.02946 28.808 3.24643 23.183 3.24643 20.5634C3.24643 17.9438 3.0375 12.3107 3.96964 9.94822C4.59643 8.37322 5.80982 7.15983 7.39285 6.52501C9.76339 5.58483 15.3884 5.80179 18.008 5.80179C20.6277 5.80179 26.2607 5.59286 28.6232 6.52501C30.1982 7.15179 31.4116 8.36519 32.0464 9.94822C32.9866 12.3188 32.7696 17.9438 32.7696 20.5634C32.7696 23.183 32.9866 28.8161 32.0464 31.1786Z" fill="#303030"/>
</g>
<defs>
<clipPath id="clip0">
<rect width="36" height="41.1429" fill="white"/>
</clipPath>
</defs>
</svg>
