<svg width="36" height="42" viewBox="0 0 36 42" fill="none" xmlns="http://www.w3.org/2000/svg">
<path d="M33.4286 2.57153H2.56339C1.14911 2.57153 0 3.73671 0 5.16707V35.976C0 37.4064 1.14911 38.5715 2.56339 38.5715H33.4286C34.8429 38.5715 36 37.4064 36 35.976V5.16707C36 3.73671 34.8429 2.57153 33.4286 2.57153ZM10.8804 33.4287H5.54464V16.2483H10.8884V33.4287H10.8804ZM8.2125 13.9019C6.50089 13.9019 5.11875 12.5117 5.11875 10.8081C5.11875 9.10457 6.50089 7.71439 8.2125 7.71439C9.91607 7.71439 11.3062 9.10457 11.3062 10.8081C11.3062 12.5197 9.92411 13.9019 8.2125 13.9019ZM30.8812 33.4287H25.5455V25.0715C25.5455 23.0787 25.5054 20.5153 22.7732 20.5153C19.9929 20.5153 19.567 22.6849 19.567 24.9269V33.4287H14.2313V16.2483H19.35V18.5947H19.4223C20.1375 17.2447 21.8813 15.8224 24.4768 15.8224C29.8768 15.8224 30.8812 19.3822 30.8812 24.0108V33.4287Z" fill="#303030"/>
</svg>
