<svg width="36" height="42" viewBox="0 0 36 42" fill="none" xmlns="http://www.w3.org/2000/svg">
<path d="M0 2.57153V38.5715H36V2.57153H0ZM29.9089 11.0974L27.9804 12.9456C27.8116 13.0742 27.7312 13.2831 27.7634 13.484V27.0885C27.7312 27.2974 27.8116 27.5064 27.9804 27.6269L29.8688 29.4751V29.8849H20.3866V29.4912L22.3393 27.5947C22.5321 27.4019 22.5321 27.3456 22.5321 27.0564V16.0555L17.1 29.8447H16.3687L10.0446 16.0555V25.2965C9.98839 25.6822 10.125 26.076 10.3982 26.3572L12.9375 29.4349V29.8447H5.72143V29.4349L8.26071 26.3572C8.53393 26.076 8.65446 25.6822 8.59018 25.2965V14.609C8.62232 14.3117 8.50982 14.0224 8.28482 13.8215L6.02679 11.0974V10.6876H13.042L18.458 22.5805L23.2232 10.6956H29.9089V11.0974Z" fill="#303030"/>
</svg>
